<?xml version="1.0" encoding="UTF-8"?>
<svg width="103px" height="137px" viewBox="0 0 103 137" version="1.1" xmlns="http://www.w3.org/2000/svg" xmlns:xlink="http://www.w3.org/1999/xlink">
    <!-- Generator: Sketch 39.1 (31720) - http://www.bohemiancoding.com/sketch -->
    <title>Page-1</title>
    <desc>Created with Sketch.</desc>
    <defs></defs>
    <g id="Page-1" stroke="none" stroke-width="1" fill="none" fill-rule="evenodd">
        <g id="enonic">
            <g id="Page-1">
                <g id="Group">
                    <path d="M51.0601526,136.449096 C81.5839818,118.800544 102.120305,85.814071 102.120305,48.0334 C102.120305,34.3670048 99.4331589,21.3279231 94.5581607,9.41520809 C81.5154691,3.37246198 66.9821953,0 51.6608603,0 C35.7550523,0 20.698578,3.63467269 7.27745518,10.1183798 C2.58263604,21.8403188 0,34.6354016 0,48.0334 C0,85.814071 20.5363234,118.800544 51.0601526,136.449096 L51.0601526,136.449096 Z" id="Oval-1-Copy-5" fill="#FF4D39"></path>
                    <g id="enonic-main-logo" style="mix-blend-mode: hard-light;" transform="translate(21.000000, 14.000000)" fill="#FFFFFF">
                        <path d="M0,5.763595 C0,2.57712756 2.28022807,0 5.12122334,0 C7.83159813,0 9.98345781,2.3429547 10.1985312,5.34183863 L10.1985312,5.43501737 C10.1985312,5.73907428 9.96206308,5.94995246 9.68280552,5.94995246 L1.03257735,5.94995246 C1.13955102,8.45719597 2.94796893,10.3550996 5.12122334,10.3550996 C6.51976322,10.3550996 7.8102034,9.55817626 8.51960769,8.26961248 C8.67049686,7.98885024 8.99366992,7.94226088 9.20874329,8.08202898 C9.44633742,8.26961248 9.53191635,8.59819012 9.38102719,8.87895234 C8.47681822,10.4482784 6.90599444,11.4793746 5.12122334,11.4793746 C2.28022807,11.4793746 0,8.90224703 0,5.763595 L0,5.763595 L0,5.763595 Z M1.09676155,4.85019822 L9.08037489,4.85019822 C8.73580709,2.69360098 7.05688361,1.12427496 5.12122334,1.12427496 C3.14164756,1.12427496 1.48411881,2.67153233 1.09676155,4.85019822 L1.09676155,4.85019822 L1.09676155,4.85019822 Z" id="Fill-1"></path>
                        <path d="M16.5181808,0 C14.030965,0 12.0182371,2.11306981 12.0182371,4.67209564 L12.0182371,10.9167083 C12.0182371,11.2447256 12.266722,11.4793746 12.5601709,11.4793746 C12.854803,11.4793746 13.103288,11.2447256 13.103288,10.9167083 L13.103288,4.67209564 C13.103288,2.7236487 14.6178626,1.12656105 16.5181808,1.12656105 C18.4173155,1.12656105 19.9318903,2.7236487 19.9318903,4.67209564 L19.9318903,10.9167083 C19.9318903,11.2447256 20.1803752,11.4793746 20.4750073,11.4793746 C20.7684561,11.4793746 21.0169411,11.2447256 21.0169411,10.9167083 L21.0169411,4.67209564 C21.0169411,2.11306981 19.0053964,0 16.5181808,0" id="Fill-3"></path>
                        <path d="M39.2949323,0 C36.8077165,0 34.7949887,2.11306981 34.7949887,4.67209564 L34.7949887,10.9167083 C34.7949887,11.2447256 35.0434736,11.4793746 35.3369225,11.4793746 C35.6315547,11.4793746 35.8800395,11.2447256 35.8800395,10.9167083 L35.8800395,4.67209564 C35.8800395,2.7236487 37.3946143,1.12656105 39.2949323,1.12656105 C41.1940671,1.12656105 42.7086419,2.7236487 42.7086419,4.67209564 L42.7086419,10.9167083 C42.7086419,11.2447256 42.9571267,11.4793746 43.2517589,11.4793746 C43.5452078,11.4793746 43.7936927,11.2447256 43.7936927,10.9167083 L43.7936927,4.67209564 C43.7936927,2.11306981 41.7821481,0 39.2949323,0" id="Combined-Shape"></path>
                        <path d="M45.5934335,0.562750501 C45.5934335,0.234172866 45.8453972,0 46.1441542,0 C46.464508,0 46.7164718,0.234172866 46.7164718,0.562750501 L46.7164718,10.9178501 C46.7164718,11.221907 46.464508,11.4793746 46.1441542,11.4793746 C45.8453972,11.4793746 45.5934335,11.221907 45.5934335,10.9178501 L45.5934335,0.562750501" id="Fill-4"></path>
                        <path d="M48.5930014,5.71700563 C48.5930014,2.5305382 51.1725231,0 54.396925,0 C55.7324904,0 57.0005543,0.468345732 57.9901744,1.2652691 C58.2204028,1.42955791 58.2662074,1.7802042 58.0600868,2.03767175 C57.8744576,2.24854993 57.5526201,2.31966001 57.2994895,2.13207652 C56.4930877,1.47614729 55.4793598,1.10098028 54.396925,1.10098028 C51.7715989,1.10098028 49.6983385,3.18646744 49.6983385,5.71700563 C49.6983385,8.29290716 51.7715989,10.3550996 54.396925,10.3550996 C55.4793598,10.3550996 56.4930877,9.97993262 57.2994895,9.34729807 C57.5526201,9.15971458 57.8744576,9.23082466 58.0600868,9.44170284 C58.2662074,9.69917039 58.2204028,10.0510427 57.9443698,10.2619209 C57.0005543,11.0110289 55.7324904,11.4793746 54.396925,11.4793746 C51.1725231,11.4793746 48.5930014,8.94883639 48.5930014,5.71700563" id="Fill-5"></path>
                        <path d="M23.8739278,4.83342088 C24.2458222,2.71018121 25.9315876,1.09578691 27.8959823,1.09578691 C29.8592113,1.09578691 31.5438108,2.71018121 31.9157052,4.83342088 L32.9952479,4.83342088 C32.6093638,2.13422195 30.4922477,0 27.8959823,0 C25.3195359,0 23.1849325,2.13422195 22.7967167,4.83342088 L23.8739278,4.83342088" id="Fill-6"></path>
                        <path d="M31.9182253,6.64595371 C31.5619345,8.76540877 29.8713001,10.3688961 27.8965645,10.3688961 C25.9206646,10.3688961 24.2288657,8.76540877 23.8737394,6.64595371 L22.7967167,6.64595371 C23.1669796,9.3393775 25.3082171,11.4769579 27.8965645,11.4769579 C30.5035415,11.4769579 32.628478,9.3393775 32.9952479,6.64595371 L31.9182253,6.64595371" id="Fill-7"></path>
                    </g>
                    <path d="M46.7197452,82.2454835 C46.0573248,80.7151966 45.0382166,79.2359192 44.477707,78.9298618 C42.8980892,78.0626993 40.5031847,78.2667375 38.3121019,79.3379384 L36.3757962,80.3581296 L34.1847134,78.1137088 L31.9936306,75.869288 L32.8089172,73.6758767 C34.5923567,69.0340064 33.4203822,66.3304995 29.1401274,65.0552604 L27,64.4431456 L27.1528662,61.1275239 L27.3057325,57.8119022 L29.343949,57.0977683 C32.4012739,56.077577 33.8280255,54.1902232 33.522293,51.639745 C33.4203822,50.466525 33.0127389,48.7832094 32.6050955,47.9160468 C31.9426752,46.2837407 31.9936306,46.1817216 33.9299363,44.1923486 C35,43.0701382 36.1719745,42.151966 36.5286624,42.151966 C36.8343949,42.151966 38.1082803,42.6110521 39.3312102,43.1211477 C43.1019108,44.7534538 45.6496815,43.5292242 47.0764331,39.34644 L47.7898089,37.3060574 L50.8980892,37.1530287 L54.0573248,37 L55.3312102,39.8565356 C56.2993631,42.1009564 56.9617834,42.8660999 58.3375796,43.4272051 C59.9681529,44.141339 60.3757962,44.0903294 63.0254777,43.1211477 L65.8789809,42.0499469 L68.0700637,44.1923486 L70.3121019,46.3857598 L69.2929936,48.3241233 C67.2547771,52.3538789 68.3757962,55.3634431 72.4522293,56.9447396 L74.6942675,57.8629118 L74.8471338,61.1275239 L75,64.4431456 L72.8598726,65.0552604 C68.5286624,66.381509 67.2038217,69.5951116 69.2929936,73.7268863 L70.3121019,75.6652497 L67.9171975,78.0116897 L65.522293,80.3581296 L63.7388535,79.3889479 C59.7133758,77.1955367 56.3503185,78.5727949 55.0254777,82.9086079 L54.4140127,85 L51.1528662,85 L47.9426752,85 L46.7197452,82.2454835 L46.7197452,82.2454835 Z M54.9235669,68.8809777 C59.3057325,66.7895855 60.9872611,61.0765143 58.4394904,56.7407014 C55.3821656,51.4867163 48.6050955,50.9256111 44.5286624,55.5674814 C38.4140127,62.5557917 46.4649682,72.8597237 54.9235669,68.8809777 L54.9235669,68.8809777 Z" id="Shape" fill="#F8E81C"></path>
                    <text id="PWA" opacity="0.800000012" font-family="Helvetica-Bold, Helvetica" font-size="20" font-weight="bold" fill="#FFFFFF">
                        <tspan x="28.2167969" y="111">PWA</tspan>
                    </text>
                </g>
            </g>
        </g>
    </g>
</svg>